<?xml version="1.0" encoding="utf-8"?>
<!-- Generator: Adobe Illustrator 19.1.0, SVG Export Plug-In . SVG Version: 6.00 Build 0)  -->
<svg version="1.1" id="Layer_1" xmlns="http://www.w3.org/2000/svg" xmlns:xlink="http://www.w3.org/1999/xlink" x="0px" y="0px"
	 viewBox="0 0 24 24" style="enable-background:new 0 0 24 24;" xml:space="preserve">
<style type="text/css">
	.st0{fill:#82A28E;}
</style>
<path class="st0" d="M24,2.5C24,1.1,22.9,0,21.5,0H2.5C1.1,0,0,1.1,0,2.5v18.9C0,22.9,1.1,24,2.5,24h18.9c1.4,0,2.5-1.1,2.5-2.5V2.5
	z M16,3.8c0.9,0,1.6,0.7,1.6,1.6C17.6,6.2,16.9,7,16,7c-0.9,0-1.6-0.7-1.6-1.6C14.4,4.5,15.1,3.8,16,3.8z M7.3,3.8
	c0.9,0,1.6,0.7,1.6,1.6C8.9,6.2,8.2,7,7.3,7C6.4,7,5.7,6.2,5.7,5.4C5.7,4.5,6.4,3.8,7.3,3.8z M1,12.1l1.2,0c0,0-0.2-0.3,0.1-1l2-3.3
	c0,0,0.7-1.6,2.4-0.6l2.4,1.3l1-1.7c0.6-1,2-0.2,1.3,0.8l-1.5,2.4c0,0-0.5,0.8-1.3,0.2L7.3,9.5L6,11.7L6.5,12l4.5,0
	c-0.1-0.1-0.2-0.4,0.1-0.9L13,7.8c0,0,0.7-1.6,2.4-0.6l2.4,1.3l1-1.7c0.6-1,2-0.2,1.3,0.8l-1.5,2.4c0,0-0.5,0.8-1.3,0.2L16,9.5
	l-1.3,2.2l0.6,0.3H18c0.5,0,1.2-0.5,1.4-1.4l0.3,0c1.6,0,2.9,1.3,2.9,2.9c0,0.8-0.3,1.4-0.8,2c-0.3-0.1-0.6-0.2-0.9-0.2
	c-0.4,0-0.8,0.1-1.1,0.2c-0.3,0.1-0.7,0.2-1.1,0.2c-0.4,0-0.7-0.1-1.1-0.2l0,0c0,0-0.1,0-0.1,0c-0.3-0.2-0.7-0.2-1.1-0.2
	c-0.4,0-0.8,0.1-1.1,0.2c-0.3,0.1-0.7,0.2-1.1,0.2c-0.4,0-0.7-0.1-1.1-0.2c-0.3-0.2-0.7-0.2-1.1-0.2c-0.4,0-0.8,0.1-1.2,0.2
	c-0.3,0.1-1.1,0.2-1.1,0.2v0c0,0,0,0-0.1,0c-0.4,0-0.7-0.1-1-0.2c-0.3-0.2-0.7-0.2-1.1-0.2c-0.4,0-0.8,0.1-1.1,0.2
	c-0.3,0.1-0.7,0.2-1.1,0.2c-0.4,0-0.7-0.1-1.1-0.2c-0.3-0.2-0.7-0.2-1.1-0.2c-0.4,0-1,0.1-1.3,0.2C2,15.6,2,15.6,1,15.6V12.1z
	 M23,18.8c0,0-0.6-0.1-0.8-0.2c-0.3-0.2-0.8-0.2-1.2-0.2c-0.4,0-0.8,0.1-1.1,0.2c-0.3,0.1-0.5,0.2-0.9,0.2c-0.1,0,0,0,0,0v0
	c-1,0-0.9-0.1-1.3-0.2c-0.3-0.1-0.7-0.2-1.1-0.2c-0.4,0-0.7,0.1-1,0.2c-0.3,0.1-0.7,0.2-1.1,0.2c0,0-0.1,0-0.1,0c0,0-0.1,0-0.1,0
	c-0.4,0-0.7-0.1-1.1-0.2c-0.3-0.1-0.6-0.2-1-0.2c-0.4,0-0.8,0.1-1.1,0.2c-0.3,0.1-1.2,0.2-1.2,0.2v0c0,0,0,0-0.1,0
	c-0.4,0-0.7-0.1-1-0.2c-0.3-0.2-0.7-0.2-1.1-0.2c-0.4,0-0.7,0.1-1.1,0.2c-0.3,0.1-0.7,0.2-1,0.2c-0.4,0-0.7-0.1-1.1-0.2
	c-0.3-0.2-0.7-0.2-1.1-0.2c-0.4,0-1,0.1-1.3,0.2C2,18.7,2,18.8,1,18.8v-1.6c1,0,1-0.1,1.3-0.2c0.3-0.2,0.8-0.2,1.2-0.2
	c0.4,0,0.8,0.1,1.1,0.2c0.3,0.1,0.7,0.2,1.1,0.2c0.4,0,0.7-0.1,1.1-0.2c0.3-0.2,0.7-0.2,1.1-0.2c0.4,0,0.8,0.1,1.1,0.2
	c0.3,0.1,0.7,0.2,1.1,0.2c0.4,0,0.7-0.1,1.1-0.2c0.3-0.2,0.7-0.2,1.1-0.2c0,0,0.1,0,0.1,0c0,0,0.1,0,0.1,0c0.4,0,0.8,0.1,1.1,0.2
	c0.3,0.1,0.6,0.2,1,0.2c0.3,0,0.7-0.1,1-0.2c0.3-0.2,0.7-0.2,1.1-0.2c0,0,0.1,0,0.1,0c0,0,0.1,0,0.1,0c0.4,0,0.8,0.1,1.1,0.2
	c0.3,0.1,0.7,0.2,1.1,0.2s0.7-0.1,1.1-0.2c0.3-0.2,0.7-0.2,1.1-0.2c0.4,0,0.9,0.1,1.2,0.2c0.2,0.1,0.8,0.2,0.8,0.2V18.8z"/>
</svg>
