<?xml version="1.0" encoding="utf-8"?>
<!-- Generator: Adobe Illustrator 19.1.0, SVG Export Plug-In . SVG Version: 6.00 Build 0)  -->
<svg version="1.1" id="Layer_1" xmlns="http://www.w3.org/2000/svg" xmlns:xlink="http://www.w3.org/1999/xlink" x="0px" y="0px"
	 viewBox="0 0 24 24" style="enable-background:new 0 0 24 24;" xml:space="preserve">
<style type="text/css">
	.st0{fill:#82A28E;}
</style>
<path class="st0" d="M21.1,0H2.5C1.2,0,0,0.5,0,1.9v19.4C0,22.7,1.2,24,2.5,24h18.6c1.3,0,2.9-1.3,2.9-2.7V1.9C24,0.5,22.4,0,21.1,0
	z M21.2,12.2c0,1.3-1,2.4-2.3,2.4c-1.4,0-2.3-1.1-2.3-2.4c0-1.3,1-2.4,2.3-2.4C20.1,9.8,21.2,10.8,21.2,12.2z M10.4,8.7
	c0-0.1,0-0.1-0.1-0.1c-0.4-0.9,0.3-1.7,0.8-1.8L18,5.4c0,0,0.1,0,0.1,0c0.7,0,1.3,0.6,1.3,1.4c0,0.7-0.5,1.2-1.1,1.4L13.9,9l3.8,7.2
	c-0.3,0.1-0.6,0.1-0.9,0.1c-0.4,0-0.8-0.1-1.2-0.3c-0.4-0.2-0.8-0.3-1.2-0.3c-0.4,0-0.9,0.1-1.2,0.3c-0.4,0.2-0.8,0.3-1.2,0.3
	c-0.4,0-0.8-0.1-1.2-0.3c-0.4-0.2-0.8-0.3-1.2-0.3c-0.4,0-0.9,0.1-1.2,0.3c-0.4,0.2-0.8,0.3-1.2,0.3c-0.4,0-0.8-0.1-1.2-0.3
	C5.8,16,5.6,16,5.4,15.9l6.8-3.9L10.4,8.7z M22,19.9c-1,0-1-0.1-1.4-0.3c-0.4-0.2-0.9-0.3-1.3-0.3c-0.4,0-0.9,0.1-1.3,0.3
	c-0.4,0.2-0.8,0.3-1.2,0.3c-0.4,0-0.8-0.1-1.2-0.3c-0.4-0.2-0.8-0.3-1.2-0.3c-0.4,0-0.9,0.1-1.2,0.3c-0.4,0.2-0.8,0.3-1.2,0.3
	c-0.4,0-0.8-0.1-1.2-0.3c-0.4-0.2-0.8-0.3-1.2-0.3c-0.4,0-0.9,0.1-1.2,0.3c-0.4,0.2-0.8,0.3-1.2,0.3c-0.4,0-0.8-0.1-1.2-0.3
	c-0.4-0.2-0.8-0.3-1.2-0.3c-0.4,0-1,0.1-1.4,0.3C3,19.8,3,19.9,2,19.9V18c1,0,1-0.1,1.3-0.3c0.4-0.2,0.9-0.3,1.3-0.3
	c0.4,0,0.9,0.1,1.3,0.3C6.3,17.9,6.7,18,7.1,18c0.4,0,0.8-0.1,1.2-0.3c0.4-0.2,0.8-0.3,1.2-0.3c0.4,0,0.9,0.1,1.2,0.3
	c0.4,0.2,0.8,0.3,1.2,0.3c0.4,0,0.8-0.1,1.2-0.3c0.4-0.2,0.8-0.3,1.2-0.3c0.4,0,0.9,0.1,1.2,0.3c0.4,0.2,0.8,0.3,1.2,0.3
	c0.4,0,0.8-0.1,1.2-0.3c0.4-0.2,0.8-0.3,1.2-0.3c0.4,0,1,0.1,1.4,0.3C21,17.9,21,18,22,18V19.9z"/>
</svg>
