<?xml version="1.0" encoding="utf-8"?>
<!-- Generator: Adobe Illustrator 19.1.0, SVG Export Plug-In . SVG Version: 6.00 Build 0)  -->
<svg version="1.1" id="Layer_1" xmlns="http://www.w3.org/2000/svg" xmlns:xlink="http://www.w3.org/1999/xlink" x="0px" y="0px"
	 viewBox="0 0 24 24" style="enable-background:new 0 0 24 24;" xml:space="preserve">
<style type="text/css">
	.st0{fill:#82A28E;}
</style>
<path class="st0" d="M21.4,0H2.8C1.5,0,0,0.4,0,1.8v19.4C0,22.6,1.5,24,2.8,24h18.6c1.3,0,2.6-1.4,2.6-2.8V1.8C24,0.4,22.7,0,21.4,0
	z M19.3,21.5L2.1,11l0.3-0.6l17.2,10.5c0.5,0.3,1.1,0.1,1.4-0.4l0.6,0.4C21.1,21.8,20.1,22,19.3,21.5z M21.6,14.2
	c-0.2,0.4-0.7,0.6-1.1,0.4l-3.7-2.3c-0.3-0.2-0.5-0.5-0.6-1l-0.3-2.6L13.1,7l0.7,2.7c0,0.1,0,0.3-0.1,0.6c0,0.3-0.4,0.7-0.8,0.8
	l-4.7,1.6c-0.2,0-0.3,0.1-0.4,0.1c-0.7-0.1-1.3-0.6-1.2-1.4c0.1-0.5,0.4-0.9,0.8-1.1l3.4-1.1L9.8,5.2c-0.2-0.6-0.1-1.3,0.3-1.9
	c0.7-1,2-1.3,3-0.6l4.2,2.6c0.4,0.3,0.7,0.8,0.7,1.3l0.3,4.6l2.9,1.8C21.7,13.3,21.9,13.8,21.6,14.2z M20.1,9.3
	c-0.9,0-1.6-0.8-1.6-1.7c0-0.9,0.7-1.7,1.6-1.7c0.9,0,1.6,0.8,1.6,1.7C21.8,8.5,21,9.3,20.1,9.3z"/>
</svg>
