<?xml version="1.0" encoding="utf-8"?>
<!-- Generator: Adobe Illustrator 19.1.0, SVG Export Plug-In . SVG Version: 6.00 Build 0)  -->
<svg version="1.1" id="Layer_1" xmlns="http://www.w3.org/2000/svg" xmlns:xlink="http://www.w3.org/1999/xlink" x="0px" y="0px"
	 viewBox="0 0 24 24" style="enable-background:new 0 0 24 24;" xml:space="preserve">
<style type="text/css">
	.st0{fill:#82A28E;}
</style>
<g>
	<circle class="st0" cx="13" cy="13.4" r="0.9"/>
	<path class="st0" d="M21.1,0H2.5C1.2,0,0,1.4,0,2.7v18.6C0,22.7,1.2,24,2.5,24h18.6c1.3,0,2.9-1.3,2.9-2.7V2.7
		C24,1.4,22.4,0,21.1,0z M2,8.7l9.3,2.6c-0.2,0.2-0.3,0.4-0.5,0.6L2,9.4V8.7z M20.9,19.7c-0.4-0.2-0.8-0.3-1.3-0.3
		c-0.5,0-0.9,0.1-1.3,0.3c-0.4,0.2-0.8,0.3-1.3,0.3c-0.4,0-0.9-0.1-1.3-0.3c-0.4-0.2-0.8-0.3-1.3-0.3c-0.5,0-0.9,0.1-1.3,0.3
		C12.9,19.9,12.4,20,12,20c-0.4,0-0.9-0.1-1.3-0.3c-0.4-0.2-0.8-0.3-1.3-0.3c-0.5,0-0.9,0.1-1.3,0.3C7.8,19.9,7.3,20,6.9,20
		c-0.4,0-0.9-0.1-1.3-0.3c-0.4-0.2-0.8-0.3-1.3-0.3c-0.5,0-0.9,0.1-1.3,0.3C2.7,19.9,2.3,20,1.8,20l0-7.5l10.3,2.8
		c-0.7-0.3-1.2-1.1-1.2-1.9c0-1.2,0.9-2.1,2.1-2.1c1.2,0,2.1,0.9,2.1,2.1c0,1.2-0.9,2.1-2.1,2.1c-0.1,0-0.1,0-0.2,0l9.4,2.6l0,1.9
		C21.7,20,21.3,19.9,20.9,19.7z M15.6,12.5l5.6,1.6l-0.2,0.7l-5.3-1.5C15.8,13,15.7,12.7,15.6,12.5z M21.4,12.8L8.9,9.4
		C4.1,8,5,4.8,5,4.7l0,0l0,0c0,0,0,0,0,0l4.1,1.1l2.3-1.6l0.8,0.2L9.9,6.1l12.5,3.4L21.4,12.8z"/>
</g>
</svg>
