<?xml version="1.0" encoding="utf-8"?>
<!-- Generator: Adobe Illustrator 19.1.0, SVG Export Plug-In . SVG Version: 6.00 Build 0)  -->
<svg version="1.1" id="Layer_1" xmlns="http://www.w3.org/2000/svg" xmlns:xlink="http://www.w3.org/1999/xlink" x="0px" y="0px"
	 viewBox="0 0 24 24" style="enable-background:new 0 0 24 24;" xml:space="preserve">
<style type="text/css">
	.st0{fill:#82A28E;}
</style>
<path class="st0" d="M21.4,0H2.8C1.5,0,0,0.3,0,1.7v19.4C0,22.5,1.5,24,2.8,24h18.6c1.3,0,2.6-1.5,2.6-2.9V1.7C24,0.3,22.7,0,21.4,0
	z M12.4,0.6c0.9,0,1.6,0.8,1.6,1.7C14,3.2,13.3,4,12.4,4c-0.9,0-1.6-0.8-1.6-1.7C10.7,1.3,11.5,0.6,12.4,0.6z M6.2,8.6l1.1-4.9
	c0.1-0.3,0.3-0.4,0.6-0.4l1.4,0.3C9.5,3.8,9.7,4,9.6,4.3L8.5,9.2C8.4,9.5,8.2,9.6,7.9,9.6L6.6,9.2C6.3,9.2,6.2,8.9,6.2,8.6z
	 M14,22.3c-0.5,0-1-0.4-1.1-0.9L11,12.9l-2,8.5c-0.1,0.5-0.6,0.9-1.1,0.9c-0.6,0-1.1-0.5-1.1-1.2c0-0.1,0-0.2,0-0.2l3.5-15.1
	c0,0,0.3-1.5,1.7-1.4c0,0,1.4,0,1.7,1.5l0.6,2.7L16.5,9c0.3,0.1,0.6,0.4,0.6,0.8c0,0.5-0.4,0.8-0.8,0.8c-0.1,0-0.1,0-0.2,0l-2.7-0.7
	c0,0-0.4-0.1-0.6-0.6l-0.2-0.8l-0.2,1l2.6,11.3c0,0.1,0,0.2,0,0.3C15.1,21.7,14.6,22.3,14,22.3z M19,6.4l-2.5,15.5
	c0,0.2-0.1,0.3-0.3,0.3c-0.2,0-0.3-0.2-0.3-0.4c0,0,0,0,0,0l2.8-15.5c0-0.2,0-0.3,0.2-0.3C19,6,19,6.2,19,6.4C19,6.4,19,6.4,19,6.4z
	"/>
</svg>
