<?xml version="1.0" encoding="utf-8"?>
<!-- Generator: Adobe Illustrator 19.1.0, SVG Export Plug-In . SVG Version: 6.00 Build 0)  -->
<svg version="1.1" id="Layer_1" xmlns="http://www.w3.org/2000/svg" xmlns:xlink="http://www.w3.org/1999/xlink" x="0px" y="0px"
	 viewBox="0 0 24 24" style="enable-background:new 0 0 24 24;" xml:space="preserve">
<style type="text/css">
	.st0{fill:#809D89;}
</style>
<g>
	<path class="st0" d="M2.9,24C1.3,24,0,22.7,0,21.1V2.9C0,1.3,1.3,0,2.9,0h18.3C22.7,0,24,1.3,24,2.9v18.3c0,1.6-1.3,2.9-2.9,2.9
		H2.9z M3.2,17.7l-1.2,1.9h19.8l-1.1-1.9h-1V9.9h1.9V7.1h-1.5l-8.2-2.8L3.8,7.1H2.3v2.7h1.8v7.8H3.2z"/>
	<g>
		<rect x="10.4" y="9.9" class="st0" width="3.1" height="7.8"/>
		<rect x="15.3" y="9.9" class="st0" width="2.8" height="7.8"/>
		<rect x="5.9" y="9.9" class="st0" width="2.7" height="7.8"/>
		<path class="st0" d="M10.4,9.9h3.1v7.8h-3.1V9.9z M15.3,9.9H18v7.8h-2.8V9.9z M8.6,9.9v7.8H5.9V9.9H8.6z"/>
	</g>
</g>
</svg>
