<?xml version="1.0" encoding="utf-8"?>
<!-- Generator: Adobe Illustrator 19.1.0, SVG Export Plug-In . SVG Version: 6.00 Build 0)  -->
<svg version="1.1" id="Layer_1" xmlns="http://www.w3.org/2000/svg" xmlns:xlink="http://www.w3.org/1999/xlink" x="0px" y="0px"
	 viewBox="0 0 24 24" style="enable-background:new 0 0 24 24;" xml:space="preserve">
<style type="text/css">
	.st0{fill:#82A28E;}
</style>
<path class="st0" d="M21.5,0l-19,0C1.1,0,0,1.1,0,2.5l0,19C0,22.9,1.1,24,2.5,24l19,0c1.4,0,2.5-1.1,2.5-2.5l0-19
	C24,1.1,22.9,0,21.5,0z M19.6,11.3c1.1,0,2,0.9,2,2c0,1.1-0.9,2-2,2c-1.1,0-2-0.9-2-2C17.6,12.2,18.5,11.3,19.6,11.3z M21.2,19.7
	c-0.1,0-0.5,0-0.6,0l-1.1-0.3v0c0,0-1.2,1.6-3,0.9L1.3,14.2l0.9-0.5l14.9,6c0,0,1.4,0.4,2.4-0.6L18,18.5c-0.6-0.2-0.8-0.5-0.8-0.5
	l-0.5-0.6h0l-12.2-5l0.8-0.5l3,1.2L3.5,4.9C3.4,4.7,3.4,4.5,3.4,4.3C3.4,3.6,3.9,3,4.7,3c0.5,0,0.9,0.3,1.1,0.6l3.9,6.6l6.5,2.6
	c0.6,0.2,0.7,0.6,0.7,0.6l2,3.5l2.7,1.1c0.3,0.1,0.6,0.5,0.6,0.8C22.2,19.3,21.8,19.7,21.2,19.7z"/>
</svg>
