<?xml version="1.0" encoding="utf-8"?>
<!-- Generator: Adobe Illustrator 19.1.0, SVG Export Plug-In . SVG Version: 6.00 Build 0)  -->
<svg version="1.1" id="Layer_1" xmlns="http://www.w3.org/2000/svg" xmlns:xlink="http://www.w3.org/1999/xlink" x="0px" y="0px"
	 viewBox="0 0 24 24" style="enable-background:new 0 0 24 24;" xml:space="preserve">
<style type="text/css">
	.st0{fill:#82A28E;}
</style>
<g>
	<path class="st0" d="M18.5,12.8c-2,0-3.5,1.6-3.5,3.5c0,2,1.6,3.5,3.5,3.5c2,0,3.5-1.6,3.5-3.5C22,14.4,20.5,12.8,18.5,12.8z"/>
	<path class="st0" d="M21.4,0H2.8C1.5,0,0,1.4,0,2.7v18.6C0,22.7,1.5,24,2.8,24h18.6c1.3,0,2.6-1.3,2.6-2.7V2.7
		C24,1.4,22.7,0,21.4,0z M14.2,2.5c0.9,0,1.6,0.7,1.6,1.6c0,0.9-0.7,1.6-1.6,1.6c-0.9,0-1.6-0.7-1.6-1.6C12.5,3.2,13.3,2.5,14.2,2.5
		z M5.7,20.7c-2.4,0-4.3-1.9-4.3-4.3c0-2.4,1.9-4.3,4.3-4.3c2.4,0,4.3,1.9,4.3,4.3C10.1,18.7,8.1,20.7,5.7,20.7z M13.6,9.5l-1.1-1.7
		l-2.2,2.1l2,1.1C13.1,11.3,13,12,13,12v4.6c0,0.5-0.5,0.9-1,0.9c-0.5,0-1-0.4-1-0.9V13l-3.4-2c-0.4-0.2-0.7-0.7-0.7-1.2
		c0-0.4,0.2-0.7,0.4-0.9l3.5-3.5c0.4-0.5,1-0.4,1-0.4c0.7,0,1.1,0.6,1.1,0.6l1.6,2.8l2.5,0c1,0,1,1.5,0,1.5h-2.8
		C14,10,13.7,9.8,13.6,9.5z M18.5,20.7c-2.4,0-4.3-1.9-4.3-4.3c0-2.4,1.9-4.3,4.3-4.3c2.4,0,4.3,1.9,4.3,4.3
		C22.9,18.8,20.9,20.7,18.5,20.7z"/>
	<path class="st0" d="M5.7,12.8c-2,0-3.5,1.6-3.5,3.5c0,2,1.6,3.5,3.5,3.5c2,0,3.5-1.6,3.5-3.5C9.3,14.4,7.7,12.8,5.7,12.8z"/>
</g>
</svg>
