<?xml version="1.0" encoding="utf-8"?>
<!-- Generator: Adobe Illustrator 19.1.0, SVG Export Plug-In . SVG Version: 6.00 Build 0)  -->
<svg version="1.1" id="Layer_1" xmlns="http://www.w3.org/2000/svg" xmlns:xlink="http://www.w3.org/1999/xlink" x="0px" y="0px"
	 viewBox="0 0 24 24" style="enable-background:new 0 0 24 24;" xml:space="preserve">
<style type="text/css">
	.st0{fill:#82A28E;}
</style>
<path class="st0" d="M21.3,0H2.9C1.5,0,0,0.2,0,1.7v19.1C0,22.3,1.5,24,2.9,24h18.3c1.4,0,2.7-1.7,2.7-3.2V1.7C24,0.2,22.7,0,21.3,0
	z M18,8.1L14,8.9l1.6,6.5c0,0.1,0.1,0.4,0,0.6l-0.7,5.5c-0.1,0.5-0.6,0.9-1.1,0.8c-0.5-0.1-0.9-0.6-0.8-1.1l0.7-5.4c0,0-0.2-1-0.2-1
	c0,0-4.6,7.2-4.6,7.2c-0.3,0.5-0.8,0.6-1.3,0.4c-0.5-0.3-0.6-0.9-0.3-1.3l4.4-6.9l-1.4-5.5c-0.1-0.5,0.2-0.9,0.7-1l6.2-1.2L9.5,1.3
	L9,2.1C8.8,2.3,8.5,2.4,8.3,2.2C8,2.1,7.9,1.7,8.1,1.5L9,0.2l9.4,6.4c0,0,0.3,0.2,0.4,0.6C18.8,7.6,18.5,8.1,18,8.1z M9,5.6
	c0-0.9,0.7-1.6,1.6-1.6c0.9,0,1.6,0.7,1.6,1.6c0,0.9-0.7,1.6-1.6,1.6C9.7,7.2,9,6.5,9,5.6z"/>
</svg>
