<?xml version="1.0" encoding="utf-8"?>
<!-- Generator: Adobe Illustrator 19.1.0, SVG Export Plug-In . SVG Version: 6.00 Build 0)  -->
<svg version="1.1" id="Layer_1" xmlns="http://www.w3.org/2000/svg" xmlns:xlink="http://www.w3.org/1999/xlink" x="0px" y="0px"
	 viewBox="0 0 24 24" style="enable-background:new 0 0 24 24;" xml:space="preserve">
<style type="text/css">
	.st0{fill:#82A28E;}
</style>
<g>
	<path class="st0" d="M21.1,0H2.5C1.2,0,0,0.2,0,1.6v19.4C0,22.3,1.2,24,2.5,24h18.6c1.3,0,2.9-1.7,2.9-3.1V1.6
		C24,0.2,22.4,0,21.1,0z M20.8,12.8l-7.1,4.7L7.3,0.3C13.1,1.1,20.4,5.8,20.8,12.8z M7.4,15h2.3c0.2,0,0.4,0,0.5,0.1l2.2,2.2
		c0.3,0.3,0.3,0.8,0,1.1c-0.3,0.3-0.8,0.1-1.1-0.2L9.4,16H6.1c-0.5,0-0.9-0.1-1.1-0.5l-1.2-2.8c0-0.1,0-0.1,0-0.2
		c0-0.7,0.5-1.3,1.2-1.3l2.7,0l1.9-0.9c0,0,0.1,0,0.2,0c0.3,0,0.6,0.3,0.6,0.6c0,0.2-0.1,0.4-0.3,0.5l-2,0.7C7.8,12.2,7.6,12,7.6,12
		H6.4L7.4,15z M4.3,8.5c0.6,0,1.2,0.5,1.2,1.2c0,0.7-0.5,1.2-1.2,1.2c-0.6,0-1.2-0.5-1.2-1.2C3.1,9,3.6,8.5,4.3,8.5z M22,21.7
		c-1,0-1.1-0.1-1.4-0.3c-0.4-0.2-0.9-0.3-1.3-0.3c-0.4,0-0.9,0.1-1.3,0.3c-0.4,0.2-0.8,0.3-1.2,0.3s-0.8-0.1-1.2-0.3
		c-0.4-0.2-0.8-0.3-1.2-0.3c-0.4,0-0.9,0.1-1.2,0.3c-0.4,0.2-0.8,0.3-1.2,0.3c-0.4,0-0.8-0.1-1.2-0.3c-0.4-0.2-0.8-0.3-1.2-0.3
		c-0.4,0-0.9,0.1-1.2,0.3c-0.4,0.2-0.8,0.3-1.2,0.3c-0.4,0-0.8-0.1-1.2-0.3c-0.4-0.2-0.8-0.3-1.2-0.3c-0.4,0-0.9,0.1-1.3,0.3
		C2.9,21.6,3,21.7,2,21.7v-1.9c1,0,0.9-0.1,1.3-0.3c0.4-0.2,0.8-0.3,1.3-0.3c0.4,0,0.9,0.1,1.3,0.3c0.4,0.2,0.8,0.3,1.2,0.3
		c0.4,0,0.8-0.1,1.2-0.3c0.4-0.2,0.8-0.3,1.2-0.3c0.4,0,0.9,0.1,1.2,0.3c0.4,0.2,0.8,0.3,1.2,0.3c0.4,0,0.8-0.1,1.2-0.3
		c0.4-0.2,0.8-0.3,1.2-0.3c0.4,0,0.9,0.1,1.2,0.3c0.4,0.2,0.8,0.3,1.2,0.3s0.8-0.1,1.2-0.3c0.4-0.2,0.8-0.3,1.2-0.3
		c0.4,0,1.1,0.1,1.4,0.3c0.4,0.2,0.4,0.3,1.4,0.3V21.7z"/>
	<path class="st0" d="M19.9,12.5c0,0.1,0.1,0.1,0.2,0.1c0.2,0,0.3-0.2,0.3-0.4c0-0.1,0-0.2-0.1-0.3c-2.1-4.2-7.8-2.9-8.5-2.7
		c-0.1,0-0.2,0.2-0.2,0.3c0,0.2,0.2,0.4,0.3,0.4c0.1,0,0.1,0,0.1,0C17.8,8.6,19.6,11.9,19.9,12.5z"/>
</g>
</svg>
