<?xml version="1.0" encoding="utf-8"?>
<!-- Generator: Adobe Illustrator 19.1.0, SVG Export Plug-In . SVG Version: 6.00 Build 0)  -->
<svg version="1.1" id="Layer_1" xmlns="http://www.w3.org/2000/svg" xmlns:xlink="http://www.w3.org/1999/xlink" x="0px" y="0px"
	 viewBox="0 0 24 24" style="enable-background:new 0 0 24 24;" xml:space="preserve">
<style type="text/css">
	.st0{fill:#809D89;}
</style>
<path class="st0" d="M2.9,24C1.3,24,0,22.7,0,21.1V2.9C0,1.3,1.3,0,2.9,0h18.3C22.7,0,24,1.3,24,2.9v18.3c0,1.6-1.3,2.9-2.9,2.9H2.9
	z M14.9,14.1l0.6,2.6c0.1,0.6,0.7,0.9,1.3,0.8c0.6-0.1,0.9-0.7,0.8-1.3l-1-4c-0.1-0.6-0.8-1-1.4-0.7l-2,0.9V13h-4L6,20.2
	c-0.2,0.5,0,1.2,0.6,1.6c0.6,0.3,1.2,0.1,1.4-0.4l2.6-5.9c0.2,0.1,0.5,0.1,0.7,0.1c0.2,0,0.5,0,0.7-0.1L14.9,14.1z M13.9,11.3
	C18.3,9.1,20,1.6,20,1h-0.6c-0.2,1.6-2.1,7.8-5.5,9.6V11.3z M5.7,9.6C5.9,10,6.4,10.2,6.8,10l2.3-0.9v3.2h4V8.6l3.6-5.8
	c0.3-0.4,0.1-1-0.3-1.3c-0.4-0.3-1-0.1-1.2,0.3l-3.1,4.9l-1.8,0c-0.1,0-0.2,0-0.4,0.1L6.8,8L5.2,5.5C4.9,5.1,4.3,5,3.9,5.3
	C3.5,5.5,3.4,6.1,3.6,6.5L5.7,9.6z M10.9,6.4c0.9,0,1.6-0.7,1.6-1.6c0-0.9-0.7-1.6-1.6-1.6c-0.9,0-1.6,0.7-1.6,1.6
	C9.3,5.7,10,6.4,10.9,6.4z M13.2,22.8v-7.2l-0.7,0.3v6.9H13.2z"/>
</svg>
