<?xml version="1.0" encoding="utf-8"?>
<!-- Generator: Adobe Illustrator 19.1.0, SVG Export Plug-In . SVG Version: 6.00 Build 0)  -->
<svg version="1.1" id="Layer_1" xmlns="http://www.w3.org/2000/svg" xmlns:xlink="http://www.w3.org/1999/xlink" x="0px" y="0px"
	 viewBox="0 0 24 24" style="enable-background:new 0 0 24 24;" xml:space="preserve">
<style type="text/css">
	.st0{fill:#82A28E;}
</style>
<path class="st0" d="M22,0H2.6C1.2,0,0,1.6,0,2.9v18.6C0,22.8,1.2,24,2.6,24H22c1.4,0,2-1.2,2-2.5V2.9C24,1.6,23.4,0,22,0z
	 M23.4,7.5L16.8,20h-0.7l6.7-12.9L23.4,7.5z M17.6,2c0.9,0,1.7,0.7,1.7,1.6c0,0.9-0.8,1.6-1.7,1.6c-0.9,0-1.7-0.7-1.7-1.6
	C15.9,2.7,16.7,2,17.6,2z M11.8,6.5L9.1,9.4C9,9.6,8.7,9.7,8.5,9.7C8,9.7,7.6,9.4,7.6,8.9c0-0.2,0.1-0.5,0.3-0.6l2.9-3.2
	c0.2-0.2,0.4-0.3,0.7-0.3l4.1,0c0.3,0,0.6,0.1,0.8,0.3L19,7.7l2.2-2.1c0.2-0.1,0.4-0.2,0.6-0.2c0.5,0,0.9,0.4,0.9,0.8
	c0,0.2-0.1,0.4-0.2,0.5l-2.6,2.5c-0.8,0.8-1.4,0.1-1.4,0.1l-1.6-1.6l-2.5,2.8l2.3,2.2c0,0,0.5,0.4,0.2,1.3l-1.3,5.5
	c-0.1,0.5-0.5,0.8-1.1,0.8c-0.6,0-1.1-0.5-1.1-1.1c0-0.1,0-0.2,0-0.3l1.1-4.6l-2.6-2.5l-2.3,2.4c0,0-0.4,0.4-1.3,0.4l-4.6,0
	c-0.5,0-1-0.3-1.1-0.8c-0.1-0.6,0.2-1.1,0.8-1.3c0.1,0,0.2,0,0.3,0l4,0l5.8-6.5L11.8,6.5z M1,9h6v1H1V9z M1.2,14.8l0-1l5.7,5.5l0,0
	c0.3,0.3,0.7,0,0.7,0l0.5,0.5c0,0-1,0.7-1.6,0.1L1.2,14.8z M21.7,22H5v-1h16.7c0.6,0,1-0.2,1-0.8l0.7,0.1C23.4,21.2,22.6,22,21.7,22
	z"/>
</svg>
