<?xml version="1.0" encoding="utf-8"?>
<!-- Generator: Adobe Illustrator 19.1.0, SVG Export Plug-In . SVG Version: 6.00 Build 0)  -->
<svg version="1.1" id="Layer_1" xmlns="http://www.w3.org/2000/svg" xmlns:xlink="http://www.w3.org/1999/xlink" x="0px" y="0px"
	 viewBox="0 0 24 24" style="enable-background:new 0 0 24 24;" xml:space="preserve">
<style type="text/css">
	.st0{fill:#82A28E;}
</style>
<path class="st0" d="M21.1,0H2.5C1.2,0,0,1.6,0,2.9v18.6C0,22.8,1.2,24,2.5,24h18.6c1.3,0,2.9-1.2,2.9-2.5V2.9C24,1.6,22.4,0,21.1,0
	z M8.8,3.1c1,0,1.9,0.8,1.9,1.9S9.8,6.8,8.8,6.8C7.7,6.8,6.9,6,6.9,5S7.7,3.1,8.8,3.1z M2,12.9l1,0c0,0-0.4-0.3,0-1.2l2.2-3.9
	c0,0,0.8-1.8,2.8-0.7L11,8.7l1.2-2c0.8-1.2,2.3-0.2,1.6,1l-1.7,2.8c0,0-0.5,0.9-1.6,0.3l-1.7-1l-1.6,2.7l0.7,0.4l7.8,0
	c0,0,1.7-0.1,2.1-1.8l0.4,0c1.9,0,3.4,1.5,3.4,3.4c0,0.9-0.3,1.7-0.9,2.3c-0.3-0.1-0.7-0.2-1.1-0.2c-0.5,0-0.9,0.1-1.3,0.3
	c-0.4,0.2-0.8,0.3-1.3,0.3c-0.4,0-0.9-0.1-1.3-0.3c-0.4-0.2-0.8-0.3-1.3-0.3c-0.5,0-0.9,0.1-1.3,0.3c-0.4,0.2-0.8,0.3-1.3,0.3
	s-0.9-0.1-1.3-0.3c-0.4-0.2-0.8-0.3-1.3-0.3c-0.5,0-0.9,0.1-1.3,0.3c-0.4,0.2-0.8,0.3-1.3,0.3c-0.4,0-0.9-0.1-1.3-0.3
	c-0.4-0.2-0.8-0.3-1.3-0.3c-0.5,0-0.8,0.1-1.2,0.3C2.8,17.1,2,17.2,2,17.2V12.9z M22,20.9c0,0-0.8-0.1-1.2-0.3
	c-0.4-0.2-0.8-0.3-1.3-0.3c-0.5,0-0.9,0.1-1.3,0.3c-0.4,0.2-0.8,0.3-1.2,0.3c-0.4,0-0.9-0.1-1.2-0.3c-0.4-0.2-0.8-0.3-1.3-0.3
	c-0.5,0-0.9,0.1-1.3,0.3c-0.4,0.2-0.8,0.3-1.3,0.3s-0.9-0.1-1.3-0.3c-0.4-0.2-0.8-0.3-1.3-0.3c-0.5,0-0.9,0.1-1.3,0.3
	c-0.4,0.2-0.8,0.3-1.3,0.3c-0.4,0-0.9-0.1-1.3-0.3c-0.4-0.2-0.8-0.3-1.3-0.3c-0.5,0-0.8,0.1-1.2,0.3C2.8,20.8,2,20.9,2,20.9V19
	c0,0,0.8-0.1,1.2-0.3c0.4-0.2,0.8-0.3,1.2-0.3c0.5,0,0.9,0.1,1.3,0.3C6.1,18.9,6.5,19,6.9,19c0.4,0,0.9-0.1,1.2-0.3
	c0.4-0.2,0.8-0.3,1.3-0.3c0.5,0,0.9,0.1,1.3,0.3c0.4,0.2,0.8,0.3,1.3,0.3s0.9-0.1,1.3-0.3c0.4-0.2,0.8-0.3,1.3-0.3
	c0.5,0,0.9,0.1,1.3,0.3c0.4,0.2,0.8,0.3,1.3,0.3c0.4,0,0.9-0.1,1.3-0.3c0.4-0.2,0.8-0.3,1.3-0.3c0.5,0,0.8,0.1,1.2,0.3
	C21.2,18.9,22,19,22,19V20.9z"/>
</svg>
