<?xml version="1.0" encoding="utf-8"?>
<!-- Generator: Adobe Illustrator 19.1.0, SVG Export Plug-In . SVG Version: 6.00 Build 0)  -->
<svg version="1.1" id="Layer_1" xmlns="http://www.w3.org/2000/svg" xmlns:xlink="http://www.w3.org/1999/xlink" x="0px" y="0px"
	 viewBox="0 0 24 24" style="enable-background:new 0 0 24 24;" xml:space="preserve">
<style type="text/css">
	.st0{fill:#809D89;}
</style>
<path class="st0" d="M2.9,24C1.3,24,0,22.7,0,21.1V2.9C0,1.3,1.3,0,2.9,0h18.3C22.7,0,24,1.3,24,2.9v18.3c0,1.6-1.3,2.9-2.9,2.9H2.9
	z M10.8,6.9h2l1.9,4.8H8.8L10.8,6.9z M8.8,6.9l-1.9,4.8H2.1v1.8h4L3.9,19H6l2.2-5.6h7.3l2.3,5.6h2.2l-2.3-5.6h4.1v-1.8h-4.8
	l-1.9-4.8h3.2V5.1H5.5v1.8H8.8z"/>
</svg>
