<?xml version="1.0" encoding="utf-8"?>
<!-- Generator: Adobe Illustrator 19.1.0, SVG Export Plug-In . SVG Version: 6.00 Build 0)  -->
<svg version="1.1" id="Layer_1" xmlns="http://www.w3.org/2000/svg" xmlns:xlink="http://www.w3.org/1999/xlink" x="0px" y="0px"
	 viewBox="0 0 24 24" style="enable-background:new 0 0 24 24;" xml:space="preserve">
<style type="text/css">
	.st0{fill:#82A28E;}
</style>
<path class="st0" d="M24,2.5C24,1.1,22.9,0,21.5,0H2.5C1.1,0,0,1.1,0,2.5v18.9C0,22.9,1.1,24,2.5,24h18.9c1.4,0,2.5-1.1,2.5-2.5V2.5
	z M6.4,12.9l3.1-1.4l0-3c0.1-0.5,0.4-1,0.9-1.3l3.3-1.7l-2-0.8c-0.1-0.1-0.2-0.1-0.3-0.2L9.6,1.9C9.5,1.8,9.4,1.6,9.5,1.4
	C9.5,1,9.9,0.7,10.4,0.7c0.2,0,0.4,0.2,0.6,0.3l1.7,2.5l3.2,1.1c-0.2-0.3-0.3-0.6-0.3-1c0-0.9,0.8-1.7,1.7-1.7
	c0.9,0,1.7,0.8,1.7,1.7c0,0.9-0.8,1.7-1.7,1.7c0,0-0.1,0-0.1,0l4.6,4.3C21.9,9.8,22,10,22,10.2c0,0.4-0.4,0.8-0.8,0.8
	c-0.2,0-0.4-0.1-0.6-0.2l-3.4-3.1l-3.6,1.8l2.4,2.1c0.2,0.2,0.3,0.5,0.3,0.8c0,0,0,0,0,0.1L15.8,17c-0.1,0.5-0.5,0.9-1.1,0.9
	c-0.6,0-1-0.5-1-1.1c0,0,0-0.1,0-0.1l0.5-4l-2.6-2.3l0,1.9c-0.1,0.3-0.3,0.6-0.5,0.7l-3.7,1.7c-0.2,0.1-0.3,0.1-0.5,0.1
	c-0.6,0-1-0.5-1-1.1C5.8,13.4,6,13,6.4,12.9z M22.1,21.9c-6.4-2-10.9-3.5-16.9-6l-2.4,1c-0.2,0.1-0.4,0.1-0.6,0
	c-0.2-0.2-0.3-0.5-0.1-0.7l1.4-1.1c-0.4-0.2-0.9-0.4-1.3-0.6C2,14.5,1.9,14.3,2,14.2C2,14,2.3,13.9,2.4,14c1.8,0.8,9.7,4.3,19.8,7.5
	c0.1,0,0.2,0.2,0.2,0.3C22.4,21.9,22.3,22,22.1,21.9z"/>
</svg>
