<?xml version="1.0" encoding="utf-8"?>
<!-- Generator: Adobe Illustrator 19.1.0, SVG Export Plug-In . SVG Version: 6.00 Build 0)  -->
<svg version="1.1" id="Layer_1" xmlns="http://www.w3.org/2000/svg" xmlns:xlink="http://www.w3.org/1999/xlink" x="0px" y="0px"
	 viewBox="0 0 24 24" style="enable-background:new 0 0 24 24;" xml:space="preserve">
<style type="text/css">
	.st0{fill:#82A28E;}
</style>
<g>
	<circle class="st0" cx="13.7" cy="14.4" r="0.8"/>
	<path class="st0" d="M21.1,0H2.5C1.2,0,0,1.5,0,2.8v18.6C0,22.7,1.2,24,2.5,24h18.6c1.3,0,2.9-1.3,2.9-2.6V2.8
		C24,1.5,22.4,0,21.1,0z M22,20.9C17,21,12.2,20.1,8.4,17c0,0-0.2-0.1-0.2-0.1c0-0.1,0-0.1,0.1-0.1l3.7,0c0.2,0,0.3-0.1,0.3-0.3
		c0-0.1-0.1-0.2-0.2-0.3l-3.4-1.6c-0.1,0-0.1-0.1-0.1-0.2c0-0.1,0.3-0.1,0.3-0.2c0,0,4.1-3.6,13.1-3.5V20.9z M22,3.8l-0.3,0
		c-0.7-0.2-1.3-0.2-1.8-0.2c-2.7,0-5.4,1.2-8.5,3.8c0,0.1,0,0.2,0,0.2c0,0.5-0.4,0.9-0.9,0.9c0,0-0.2-0.1-0.4-0.1
		c-0.1,0.1-2.7,2.5-2.7,2.5l-2.1,2l0,0c-0.7,0.7-1.9,0.6-2.6-0.1c-0.7-0.7-0.6-1.9,0.1-2.5c0,0,0.2-0.3,0.7-0.5l2-0.7l-1.8,2.3
		c0,0-0.1-0.6-0.1-0.8c-0.1,0.1-0.3,0.2-0.3,0.2c-0.2,0.2-0.3,0.5-0.3,0.8c0,0.2,0.1,0.5,0.3,0.7c0.2,0.2,0.4,0.3,0.7,0.3
		c0.3,0,0.5-0.1,0.7-0.3L7,10.3c0,0,2.5-2.3,2.6-2.4c0-0.1-0.1-0.3-0.1-0.3c0-0.5,0.4-0.9,0.9-0.9c0,0,0.3,0.1,0.4,0.1
		c3.2-2.6,6-3.9,8.9-3.9c0.6,0,1.2,0,2,0.2l0.3,0V3.8z"/>
</g>
</svg>
