<?xml version="1.0" encoding="utf-8"?>
<!-- Generator: Adobe Illustrator 19.1.0, SVG Export Plug-In . SVG Version: 6.00 Build 0)  -->
<svg version="1.1" id="Layer_1" xmlns="http://www.w3.org/2000/svg" xmlns:xlink="http://www.w3.org/1999/xlink" x="0px" y="0px"
	 viewBox="0 0 24 24" style="enable-background:new 0 0 24 24;" xml:space="preserve">
<style type="text/css">
	.st0{fill:#82A28E;}
</style>
<path class="st0" d="M21.1,0H2.5C1.2,0,0,0.6,0,2v19.4C0,22.8,1.2,24,2.5,24h18.6c1.3,0,2.9-1.2,2.9-2.6V2C24,0.6,22.4,0,21.1,0z
	 M15,3.7c3,1.6,6.9,6.3,6.4,10.3H15V3.7z M20.5,15l-1.7,2.5c0,0-0.6,0.8-1.4,1c-0.1,0-0.2-0.2-0.3-0.2C17.1,18.3,17,18,17,18
	c0,0,0,0,0,0c-0.1,0-0.2,0.4-0.2,0.4c-0.4,0-0.8,0.1-1.2-0.1c-0.4-0.2-0.8-0.2-1.2-0.2c-0.4,0-0.9,0.1-1.2,0.3
	c-0.4,0.2-0.8,0.3-1.2,0.3c-0.4,0-0.8-0.1-1.2-0.3c-0.4-0.2-0.8-0.3-1.2-0.3c-0.4,0-0.9,0.1-1.2,0.3c-0.4,0.2-0.8,0.3-1.2,0.3
	c-0.4,0-1-0.1-1.4-0.3C5.5,18.4,6,18.3,5,18.3V15h12h3H20.5z M14,0.4V14H2.8L14,0.4z M22,22.3c-1,0-1.1-0.1-1.4-0.3
	c-0.4-0.2-0.9-0.3-1.3-0.3c-0.4,0-0.9,0.1-1.3,0.3c-0.4,0.2-0.8,0.3-1.2,0.3c-0.4,0-0.8-0.1-1.2-0.3c-0.4-0.2-0.8-0.3-1.2-0.3
	c-0.4,0-0.9,0.1-1.2,0.3c-0.4,0.2-0.8,0.3-1.2,0.3c-0.4,0-0.8-0.1-1.2-0.3c-0.4-0.2-0.8-0.3-1.2-0.3c-0.4,0-0.9,0.1-1.2,0.3
	c-0.4,0.2-0.8,0.3-1.2,0.3c-0.4,0-0.8-0.1-1.2-0.3c-0.4-0.2-0.8-0.3-1.2-0.3c-0.4,0-0.9,0.1-1.3,0.3C2.9,22.2,3,22.3,2,22.3v-1.9
	c1,0,0.9-0.1,1.3-0.3c0.4-0.2,0.8-0.3,1.3-0.3c0.4,0,0.9,0.1,1.3,0.3c0.4,0.2,0.8,0.3,1.2,0.3c0.4,0,0.8-0.1,1.2-0.3
	C8.6,20,9,19.9,9.5,19.9c0.4,0,0.9,0.1,1.2,0.3c0.4,0.2,0.8,0.3,1.2,0.3c0.4,0,0.8-0.1,1.2-0.3c0.4-0.2,0.8-0.3,1.2-0.3
	c0.4,0,0.9,0.1,1.2,0.3c0.4,0.2,0.8,0.3,1.2,0.3c0.4,0,0.8-0.1,1.2-0.3c0.4-0.2,0.8-0.3,1.2-0.3c0.4,0,1.1,0.1,1.5,0.3
	c0.4,0.2,0.4,0.3,1.4,0.3V22.3z"/>
</svg>
